<?xml version="1.0" encoding="UTF-8" standalone="no"?>
<!-- Created with Inkscape (http://www.inkscape.org/) -->

<svg
   xmlns:dc="http://purl.org/dc/elements/1.1/"
   xmlns:cc="http://creativecommons.org/ns#"
   xmlns:rdf="http://www.w3.org/1999/02/22-rdf-syntax-ns#"
   xmlns:svg="http://www.w3.org/2000/svg"
   xmlns="http://www.w3.org/2000/svg"
   xmlns:sodipodi="http://sodipodi.sourceforge.net/DTD/sodipodi-0.dtd"
   xmlns:inkscape="http://www.inkscape.org/namespaces/inkscape"
   width="1024"
   height="1024"
   id="svg2"
   version="1.1"
   inkscape:version="0.92.3 (3ce5693, 2018-03-11)"
   sodipodi:docname="CleverDicIcon.svg"
   inkscape:export-filename="/home/mark/apps/Android/Anagram Solver/CleverDic/ic_launcher.png"
   inkscape:export-xdpi="48"
   inkscape:export-ydpi="48">
  <defs
     id="defs4" />
  <sodipodi:namedview
     id="base"
     pagecolor="#ffffff"
     bordercolor="#666666"
     borderopacity="1.0"
     inkscape:pageopacity="0.0"
     inkscape:pageshadow="2"
     inkscape:zoom="0.6363961"
     inkscape:cx="149.5474"
     inkscape:cy="418.5843"
     inkscape:document-units="px"
     inkscape:current-layer="layer1"
     showgrid="false"
     inkscape:window-width="1920"
     inkscape:window-height="1056"
     inkscape:window-x="1366"
     inkscape:window-y="24"
     inkscape:window-maximized="1" />
  <metadata
     id="metadata7">
    <rdf:RDF>
      <cc:Work
         rdf:about="">
        <dc:format>image/svg+xml</dc:format>
        <dc:type
           rdf:resource="http://purl.org/dc/dcmitype/StillImage" />
        <dc:title />
      </cc:Work>
    </rdf:RDF>
  </metadata>
  <g
     inkscape:label="Layer 1"
     inkscape:groupmode="layer"
     id="layer1"
     transform="translate(0,-28.362183)">
    <rect
       style="fill:#ffffff;fill-opacity:1;stroke:none;stroke-width:4.0078125;stroke-linecap:round;stroke-linejoin:round;stroke-miterlimit:4;stroke-dasharray:none;stroke-opacity:1"
       id="rect5342"
       width="1024"
       height="1024"
       x="0"
       y="28.362183"
       ry="155.19327"
       inkscape:export-xdpi="90"
       inkscape:export-ydpi="90"
       rx="155.19328" />
    <path
       style="fill:#000000;stroke-width:1.90932763"
       d="m 836.07585,958.5267 c -35.53807,-8.41089 -71.34573,-19.9359 -124.57731,-40.09622 l -43.59292,-16.5099 -13.12622,11.13692 c -25.03575,21.24155 -69.54279,18.10357 -106.09035,-7.47994 -13.61642,-9.53155 -21.52553,-12.13444 -40.24616,-13.24502 -60.12739,-3.56691 -119.4949,-9.55363 -157.61242,-15.89383 l -41.7595,-6.946 -25.7275,18.60634 c -14.15011,10.23346 -37.00743,24.7223 -50.79407,32.19739 -23.86858,12.9415 -93.24692,41.6674 -100.63446,41.6674 -1.91857,0 -3.48831,-4.07939 -3.48831,-9.06527 0,-5.87336 -2.79048,-9.92108 -7.92509,-11.49588 -13.05229,-4.00318 -6.7402,-9.71376 21.59239,-19.53484 14.75368,-5.11413 30.24794,-11.60027 34.43166,-14.41367 11.35326,-7.6346 18.73585,-6.50641 16.301,2.49099 -1.72947,6.39085 -0.72298,7.21005 6.29893,5.12691 11.98427,-3.55532 13.02317,-5.36651 5.43279,-9.47131 -14.72701,-7.96411 -23.25226,-38.51416 -14.42931,-51.70699 2.96593,-4.43491 3.76271,-3.66494 3.8564,3.72654 0.24084,18.99738 6.81171,20.08615 8.53353,1.41396 0.92223,-10.00088 1.37197,-18.6337 0.99943,-19.184 -0.37253,-0.55034 -12.64828,3.91397 -27.27943,9.92064 -32.14842,13.19826 -72.60498,23.6881 -83.90082,21.75439 -9.71557,-1.66319 -11.47001,-0.83471 41.87311,-19.77338 21.2102,-7.53036 60.25624,-23.66604 86.76898,-35.85706 l 48.205,-22.16543 38.00636,11.86889 c 32.97187,10.29669 39.2296,11.23627 47.24088,7.09313 5.07898,-2.62667 9.23453,-6.82839 9.23453,-9.33719 0,-6.7821 9.399,-9.08537 37.07505,-9.08537 13.68129,0 31.05244,-2.49419 38.60255,-5.54262 l 13.72752,-5.54258 -12.26436,-9.97232 c -11.58164,-9.41716 -12.83576,-9.65543 -22.52827,-4.28018 -25.49535,14.13915 -52.34589,12.04848 -70.49439,-5.489 l -11.69922,-11.30531 -37.30673,6.45779 c -59.42016,10.28561 -60.08939,10.3372 -67.12178,5.17398 -3.67217,-2.69609 -7.30612,-9.0944 -8.07544,-14.21842 -1.13632,-7.56852 -3.86298,-9.52614 -14.53351,-10.43439 -24.385,-2.0756 -29.10457,-9.09141 -45.62497,-67.82324 -8.35959,-29.71927 -21.38939,-75.703 -28.95508,-102.18609 -12.08087,-42.28808 -13.07704,-48.8759 -8.18123,-54.10353 5.22615,-5.58041 6.30017,-15.48596 11.74205,-108.2957 0.54081,-9.22325 1.20453,-21.38113 1.47498,-27.01753 0.36153,-7.53505 2.49417,-10.24802 8.05584,-10.24802 5.68541,0 8.58176,3.93373 11.6612,15.83784 2.25336,8.71084 6.5187,24.2226 9.47855,34.47063 l 5.38151,18.63277 0.28735,-16.7695 c 0.15806,-9.22321 -2.20214,-21.38109 -5.24482,-27.0175 -5.49995,-10.18835 -5.45813,-10.24803 7.18131,-10.24803 h 12.71347 l 13.58226,49.37684 c 9.78853,35.58508 15.0601,49.02348 18.87312,48.11169 2.90998,-0.69583 21.34314,-2.19991 40.96256,-3.34243 40.40845,-2.35313 38.80309,-0.3937 29.80997,-36.38451 -8.76105,-35.062 -7.52047,-108.52284 2.4348,-144.17522 7.8991,-28.28886 19.03007,-47.74232 27.31741,-47.74232 2.69301,0 2.77735,1.55979 0.25187,4.6582 -2.08826,2.56199 -4.88436,9.06757 -6.21356,14.45679 -4.5723,18.53861 23.12419,40.50988 51.06587,40.50988 14.03472,0 33.41995,17.54019 37.05355,33.5269 10.53684,46.35865 -47.27203,71.3621 -77.96668,33.72208 -6.74692,-8.27358 -6.0053,-30.58623 1.35409,-40.73948 5.27792,-7.28157 5.43398,-9.21616 0.96409,-11.95178 -21.69452,-13.2773 -30.50072,27.98306 -11.32241,53.04972 5.46054,7.13709 6.33869,10.55198 2.999,11.66235 -8.76364,2.91369 22.05138,17.59254 36.96138,17.6067 8.07898,0.007 13.75373,1.4764 12.61051,3.26388 -2.4141,3.77456 31.04075,3.10433 34.97839,-0.70076 1.45094,-1.40205 5.22086,-2.54919 8.37761,-2.54919 9.38215,0 -6.52884,14.88302 -24.37881,22.80377 -29.56161,13.11766 -56.61771,7.52408 -77.03794,-15.92686 l -10.46964,-12.02353 2.84254,22.13771 c 1.56341,12.17574 4.84399,28.84551 7.29018,37.04393 l 4.44765,14.9062 7.43357,-8.38473 c 4.08845,-4.61161 8.4637,-8.38475 9.72278,-8.38475 1.25907,0 6.27552,6.85386 11.14766,15.23079 6.49909,11.17419 10.7437,14.75442 15.93672,13.44212 6.17711,-1.56098 8.37683,3.73514 17.27803,41.59913 9.69921,41.25876 34.35035,146.02581 38.41746,163.27384 1.54415,6.54859 -0.24762,8.54673 -9.40725,10.49079 -11.18772,2.3745 -11.23096,2.48237 -3.85314,9.6118 4.10386,3.96568 9.00159,7.21032 10.88384,7.21032 1.88224,0 10.99299,9.14388 20.24609,20.31974 16.51363,19.94508 26.50519,27.21838 19.15215,13.9417 -5.56695,-10.0517 -16.53007,-70.16996 -14.9266,-81.85256 0.91088,-6.63635 2.45681,-2.40087 4.44888,12.18886 5.00903,36.68549 9.46632,49.06424 20.08866,55.78993 5.46707,3.46156 10.77131,5.49053 11.78718,4.50884 1.0159,-0.98166 -0.11636,-8.83119 -2.51626,-17.44341 -6.57433,-23.59315 -2.0209,-21.90155 6.24904,2.32154 5.27078,15.43829 9.73474,22.09458 16.36139,24.39667 8.75252,3.04064 9.02475,2.61161 6.88073,-10.84454 l -2.23226,-14.01038 5.82835,12.5015 c 4.32634,9.27972 7.69846,12.02895 13.08476,10.66781 6.27746,-1.58631 6.72489,-0.70651 3.31663,6.52197 -3.06835,6.50752 -2.11477,11.81246 4.31122,23.98439 4.53807,8.59578 10.64008,16.51459 13.56004,17.59739 6.2258,2.30859 21.3373,-4.70668 21.3373,-9.90559 0,-1.97172 -8.03972,-14.07061 -17.86596,-26.88639 -9.82631,-12.8158 -20.24946,-28.72279 -23.16259,-35.34889 -3.21751,-7.31852 -10.96362,-14.87737 -19.73388,-19.25689 -45.46231,-22.70203 -81.52976,-89.35466 -82.87888,-153.16006 -1.28394,-60.72336 34.10705,-107.33644 87.72351,-115.53969 l 15.4256,-2.3601 -16.51129,-4.57681 c -18.16988,-5.03655 -50.97569,-32.52695 -50.97569,-42.71627 0,-8.27018 2.10475,-7.89898 16.85459,2.97245 14.1992,10.46565 42.97879,23.00707 39.18556,17.07611 -1.50582,-2.35443 1.48178,-3.91785 7.4867,-3.91785 12.82167,0 40.39466,-11.38591 33.56521,-13.86029 -3.80092,-1.37712 -2.98095,-4.03095 3.21439,-10.40353 12.18363,-12.53225 16.12933,-33.60088 8.99881,-48.05034 l -5.79522,-11.7435 -27.65251,1.31197 c -34.63166,1.64309 -46.41951,8.63738 -48.15765,28.57424 -1.66996,19.15467 10.48075,31.81211 30.53841,31.81211 20.76938,0 32.01278,-14.26275 28.59667,-36.27613 -3.13325,-20.19037 3.74754,-21.25446 9.8644,-1.52552 12.98118,41.86848 -39.84825,67.14971 -74.08517,35.45305 -18.89748,-17.49534 -18.1251,-51.95313 1.51768,-67.70629 2.94711,-2.36355 17.37844,-5.29964 32.06956,-6.52466 32.62909,-2.72078 47.09098,-10.28771 58.83553,-30.78471 4.94232,-8.62547 10.58231,-14.72934 12.53328,-13.56413 6.16897,3.68424 3.81508,25.43123 -4.11264,37.99579 l -7.63116,12.09453 11.92453,16.34787 c 30.21206,41.41901 12.76646,85.35367 -41.53165,104.59253 -13.79908,4.88928 -14.09926,5.28984 -4.14698,5.5334 13.79488,0.33762 35.61639,9.18699 51.47263,20.87394 6.86597,5.06058 13.46706,9.20107 14.66909,9.20107 3.83283,0 2.1174,-67.05875 -3.19594,-124.93428 -2.82734,-30.79616 -4.28921,-68.81212 -3.24868,-84.47989 1.04054,-15.66775 0.72442,-34.50025 -0.70244,-41.84998 l -2.59428,-13.36317 -13.59589,10.26902 c -14.95258,11.29372 -28.46687,33.25894 -28.46687,46.26812 0,6.36459 -1.06964,7.31327 -4.50387,3.99463 -7.84164,-7.57762 3.28904,-34.3964 22.01198,-53.03667 23.58065,-23.47657 36.81036,-58.10889 24.91229,-65.2147 -2.12102,-1.26673 -3.8564,0.56846 -3.8564,4.07819 0,3.50973 -8.77389,15.34607 -19.49752,26.30297 -21.67517,22.14662 -33.32144,44.17319 -36.97488,69.93035 -1.93595,13.64867 -3.46938,16.30676 -7.52897,13.05101 -9.90004,-7.93966 -49.5594,6.07675 -65.7169,23.22568 -4.53292,4.81107 -11.94356,15.87445 -16.46807,24.58526 -4.52451,8.71083 -8.97759,15.83785 -9.89573,15.83785 -0.91815,0 -5.00047,-7.27693 -9.0718,-16.17097 -9.28271,-20.27852 -31.72371,-42.22633 -52.34272,-51.19236 -14.77762,-6.42594 -15.90339,-6.45882 -17.15396,-0.50104 -3.13199,14.92075 -8.3026,12.54016 -8.3026,-3.82257 0,-14.41311 -2.93252,-21.41844 -17.67952,-42.23339 -19.0184,-26.84389 -24.32736,-44.32152 -17.31113,-56.99003 3.59973,-6.49968 3.34036,-7.96423 -1.41042,-7.96423 -7.59602,0 -17.5885,18.92309 -17.5885,33.3079 0,8.79433 4.37094,15.2768 19.59824,29.06586 19.9118,18.03107 30.53494,33.21629 30.53494,43.64798 0,3.17618 -1.73537,5.77488 -3.85639,5.77488 -2.12103,0 -3.8564,-1.7129 -3.8564,-3.80645 0,-5.88485 -19.83563,-33.45909 -24.06892,-33.45909 -3.42644,0 -2.38533,8.5192 3.30172,27.01752 3.18089,10.34645 -8.24354,7.79915 -13.32138,-2.97026 -5.835,-12.37526 -5.65814,-14.91889 1.51981,-21.85516 5.42271,-5.24011 5.27743,-6.53788 -1.52119,-13.58964 -5.43988,-5.64242 -8.31154,-6.55305 -10.39455,-3.29616 -4.29255,6.71161 -2.94781,52.26367 1.90714,64.6032 2.32603,5.91196 3.42951,11.52175 2.45215,12.46621 -0.97737,0.94446 -23.152,-5.8399 -49.27698,-15.07633 -26.12499,-9.23644 -51.50011,-17.93031 -56.38916,-19.31973 -4.88904,-1.38944 -8.3584,-4.06492 -7.70968,-5.94554 0.64871,-1.88063 23.73802,-15.81663 51.30956,-30.96891 47.79171,-26.26451 50.22003,-28.17339 52.05829,-40.92211 2.31216,-16.03543 11.5765,-27.3252 25.11798,-30.60946 12.92088,-3.13373 14.75154,-0.9108 9.10756,11.05931 -2.54497,5.39753 -3.73439,10.67646 -2.64315,11.73095 1.09122,1.05449 22.48071,-9.1659 47.53221,-22.71201 l 45.54818,-24.62927 76.37056,30.50144 76.37056,30.50143 9.74739,-10.60008 c 5.36105,-5.83005 10.81311,-14.37323 12.11565,-18.98483 2.79242,-9.88629 6.4838,-10.52061 14.74834,-2.53433 8.18589,7.91028 11.2719,21.43133 8.33922,36.53759 -2.35833,12.14763 -1.8537,12.76694 16.68016,20.47156 10.51162,4.36973 24.86416,7.95122 31.89454,7.95889 15.69378,0.0169 37.79423,12.43828 38.00308,21.35897 2.55522,109.12811 4.88734,157.91385 8.00889,167.5377 4.32963,13.34827 9.85604,73.01255 7.95861,85.92274 -1.06401,7.23955 -3.54207,8.38476 -18.14317,8.38476 -16.02638,0 -17.03359,-0.63345 -19.25842,-12.1113 -1.2912,-6.66122 -0.41403,-26.36537 1.94929,-43.78701 8.29153,-61.12252 8.71866,-70.33718 5.92767,-127.88366 l -2.81347,-58.01062 -32.67685,15.62114 -32.67685,15.62115 1.99457,13.04294 c 8.48935,55.51391 10.44795,97.30329 6.51323,138.96954 -2.31473,24.51196 -5.26647,46.22111 -6.55932,48.24259 -1.29286,2.02147 -0.62363,4.74563 1.48718,6.05368 6.98996,4.33159 32.81618,46.19316 47.31238,76.68826 32.88012,69.1688 50.61351,141.66691 56.10048,229.3517 l 2.67841,42.80286 16.98706,-18.13099 c 31.52733,-33.65059 89.58237,-123.4307 99.18591,-153.38757 1.91614,-5.97721 -0.92698,-10.06145 -12.97068,-18.63277 -28.27609,-20.12373 -37.56523,-53.58268 -25.56938,-92.09966 2.9277,-9.40053 9.00151,-22.08379 13.4974,-28.18504 4.49582,-6.10123 8.17424,-15.44591 8.17424,-20.76593 0,-13.51454 8.45426,-12.22164 22.71522,3.47378 22.0165,24.23114 28.69255,41.46488 30.50459,78.74551 1.47921,30.43186 0.69802,35.78268 -7.20854,49.37685 -4.87713,8.38548 -9.84949,15.25022 -11.04969,15.25486 -1.20019,0.004 -2.35333,4.77488 -2.5625,10.60046 -0.20901,5.82557 -9.28428,28.60408 -20.16696,50.61888 l -19.78668,40.02696 14.18646,-12.0365 c 18.78251,-15.93601 42.7951,-25.84172 67.60759,-27.88956 l 20.2423,-1.67067 -21.9219,6.98182 c -12.05702,3.84003 -27.94158,10.57696 -35.299,14.97097 -14.47912,8.64734 -42.87334,37.18412 -39.87815,40.07847 3.4155,3.30054 35.2537,-6.77592 57.64168,-18.24293 12.23477,-6.26658 28.2836,-18.27081 35.6641,-26.67601 23.94294,-27.26731 25.62526,-28.96652 27.18596,-27.45835 2.31889,2.24083 -5.64085,24.63756 -16.6118,46.74173 -22.52211,45.3772 -80.52577,68.30401 -117.27688,46.35536 l -13.81411,-8.25016 -9.72407,13.97305 c -5.34824,7.6852 -20.27058,25.6647 -33.16078,39.95444 l -23.43673,25.98135 18.18785,10.988 c 34.96096,21.12134 82.44415,40.09755 121.50304,48.55756 41.58732,9.00768 44.59554,11.31438 39.6396,30.39553 -2.08579,8.03076 -4.34705,8.97909 -20.58757,8.63427 -10.03444,-0.21314 -30.39208,-3.26237 -45.23923,-6.7763 z m 29.35685,-8.81391 c -3.14943,-3.04337 -4.29026,-2.62633 -4.29026,1.56825 0,3.14273 1.26536,6.93683 2.81198,8.43131 1.54656,1.4945 3.47715,0.78881 4.29023,-1.56823 0.81305,-2.35705 -0.45235,-6.15117 -2.81195,-8.43133 z m 7.25693,-9.17666 c -0.0117,-1.53719 -13.46131,-5.88459 -29.8871,-9.66086 -41.00321,-9.42657 -79.96414,-25.67126 -104.17899,-43.4372 -11.17835,-8.20136 -21.1568,-14.91154 -22.1743,-14.91154 -1.01748,0 -1.87653,4.61161 -1.909,10.24802 -0.11655,20.22458 -5.36525,20.93377 -22.4413,3.03216 -8.83503,-9.2621 -16.06364,-14.4994 -16.06364,-11.63839 0,2.86094 -0.94328,7.57716 -2.09623,10.48046 -1.48718,3.74505 7.75641,9.66416 31.8153,20.37286 36.09604,16.0665 51.2653,21.43811 51.2653,18.15353 0,-1.11399 -6.50767,-5.34521 -14.4615,-9.40282 -17.75633,-9.05825 -15.10635,-9.66495 7.22793,-1.65484 64.44325,23.11239 122.96835,36.64497 122.90353,28.41862 z M 583.48172,903.08618 c -5.30256,-3.47323 -17.45022,-13.1113 -26.99479,-21.41792 -20.01747,-17.42112 -38.564,-29.35794 -38.564,-24.82031 0,6.43636 37.21614,39.23063 52.06139,45.87563 19.1675,8.57977 26.33646,8.77235 13.4974,0.3626 z m 50.28014,-1.67885 c 9.46376,-4.61162 19.17095,-12.57713 21.57154,-17.70113 5.73559,-12.24253 9.79009,-45.46911 6.18359,-50.67436 -1.55952,-2.25084 -10.6447,-5.27036 -20.1893,-6.70999 l -17.35379,-2.61757 15.42561,15.62492 c 14.32486,14.50993 14.60006,15.17006 3.8564,9.25075 -6.36306,-3.5058 -15.16446,-11.26545 -19.55862,-17.24369 -7.46815,-10.16037 -54.86801,-42.78327 -57.90226,-39.85117 -1.98619,1.91936 23.20342,37.37555 30.98934,43.61971 5.66362,4.54217 7.10332,4.53068 10.46418,-0.0835 2.94413,-4.04201 3.39868,-3.17681 1.85897,3.53832 -2.09463,9.13547 7.18497,20.59287 28.36377,35.02023 9.36744,6.38126 9.25802,6.39426 -3.85638,0.4579 -7.42358,-3.36031 -16.96816,-9.14104 -21.21021,-12.8461 -7.44536,-6.50288 -8.02385,-6.49135 -16.68386,0.33167 -10.82155,8.5262 -9.68137,10.67122 13.79661,25.9551 11.73966,7.64239 14.85232,10.94929 8.67185,9.21301 -5.30253,-1.48961 -17.50223,-8.10676 -27.1104,-14.70478 -12.22563,-8.39545 -19.74982,-11.21769 -25.06661,-9.40214 -6.88926,2.35254 -6.19931,3.77283 7.40476,15.24261 8.25108,6.95658 16.92798,14.68073 19.28199,17.16478 6.61659,6.98199 22.16339,5.62474 41.06282,-3.5848 z m 63.59618,-43.77601 c -7.19922,-7.17965 -14.19521,-18.08479 -15.54667,-24.23359 -2.43617,-11.08421 -2.39726,-11.11432 4.56027,-3.5243 3.85959,4.2105 9.86466,11.75676 13.34461,16.76951 3.47992,5.01276 7.53879,7.98682 9.01968,6.609 1.48094,-1.37782 -1.80013,-8.89414 -7.2912,-16.70289 -12.73133,-18.10503 -12.79879,-23.77547 -0.14623,-12.28919 l 9.83764,8.93084 -2.08758,-33.4355 c -2.1044,-33.70411 -7.829,-78.5464 -13.03083,-102.07411 l -2.81681,-12.74035 -7.01368,10.34381 c -5.07398,7.48318 -5.84788,11.47032 -2.79824,14.41728 7.2648,7.02019 5.04788,28.10322 -3.49736,33.26013 -4.96234,2.9947 -7.71282,8.69044 -7.71282,15.9719 0,24.02893 -22.32384,38.94446 -58.68621,39.21081 l -20.36995,0.14905 11.56918,6.29721 c 8.19737,4.46187 20.7482,6.31908 43.06346,6.37226 27.4114,0.0652 32.69297,-1.01192 40.74073,-8.3097 11.95056,-10.83678 15.4308,-10.63745 10.1413,0.5809 -2.32504,4.93109 -10.12542,12.03499 -17.33419,15.78642 -15.04114,7.82748 -14.95075,8.35807 6.66375,39.11515 11.71595,16.67157 16.8384,21.37093 19.22588,17.63796 2.21914,-3.46971 -0.91002,-9.24225 -9.83478,-18.14275 z m -437.68694,4.90377 c 11.11006,-9.03374 12.10795,-11.5341 10.4106,-26.08588 -2.23152,-19.13129 -0.42997,-20.30935 6.5448,-4.27977 3.4801,7.99801 4.06414,15.44224 1.80798,23.04411 -1.83304,6.17626 -2.80435,11.74018 -2.15849,12.3643 0.64588,0.6241 7.12387,-3.11696 14.39556,-8.31349 7.27169,-5.19653 16.35733,-8.66271 20.19034,-7.7026 5.64625,1.41429 6.10661,0.7414 2.42533,-3.54493 -3.82237,-4.45058 -1.94362,-4.40404 11.83365,0.29328 20.3316,6.93181 26.97691,7.04271 26.97691,0.45011 0,-2.82344 2.60306,-7.22114 5.78459,-9.77267 7.8036,-6.25838 7.29433,-11.17968 -1.15692,-11.17968 -3.81783,0 -8.59013,-1.35739 -10.60511,-3.01645 -2.01495,-1.65902 -19.44482,-7.76014 -38.73305,-13.55794 l -35.06947,-10.54153 -28.56112,16.73431 c -31.3111,18.34556 -36.79274,28.47937 -24.89599,46.02478 8.34905,12.31322 25.00021,11.93953 40.81039,-0.91595 z m -34.06322,1.79303 c -6.42956,-6.21306 -5.77682,-18.37028 1.52737,-28.44736 7.74005,-10.67836 29.63161,-10.2155 31.76773,0.67171 1.04831,5.34279 -0.3318,6.36547 -6.17265,4.57404 -9.58782,-2.94059 -19.64428,7.32336 -13.23942,13.51257 3.16347,3.05696 5.89839,2.87474 10.34204,-0.68897 9.27353,-7.43724 10.6231,-2.40751 1.8075,6.73631 -8.68351,9.00682 -18.98869,10.44843 -26.03257,3.6417 z m 209.40246,4.47186 c 1.31088,-2.0496 -0.21969,-3.72656 -3.4012,-3.72656 -3.18152,0 -6.85711,1.67696 -8.16798,3.72656 -1.31087,2.04962 0.21968,3.72655 3.4012,3.72655 3.18154,0 6.85713,-1.67693 8.16798,-3.72655 z m -8.47356,-6.52148 c 0.89243,-1.53719 2.71605,-7.22466 4.05251,-12.63878 2.22001,-8.99376 1.29928,-9.9714 -10.66146,-11.32075 -8.79024,-0.99164 -15.98504,0.78742 -21.89897,5.41498 -5.47951,4.28765 -12.08919,6.09596 -17.49203,4.7856 -8.14676,-1.97585 -16.26835,3.4711 -11.72365,7.86276 1.87648,1.81332 33.70718,7.09458 49.57988,8.22619 3.58661,0.25563 7.25129,-0.79278 8.14372,-2.33 z m 41.25296,-0.93163 c 0,-2.04961 7.89543,-3.72655 17.54542,-3.72655 15.39225,0 17.09446,-0.7787 13.87066,-6.34535 -2.02114,-3.48995 -10.35042,-8.34496 -18.50951,-10.78894 -13.3501,-3.99885 -13.7734,-4.48268 -4.22967,-4.83431 5.8328,-0.21503 10.60509,-1.3897 10.60509,-2.61067 0,-4.1663 -13.22402,-23.86593 -16.02077,-23.86593 -3.36872,0 -8.29793,29.49597 -6.59586,39.46904 0.66767,3.91207 -0.14661,9.20906 -1.8097,11.77107 -1.70939,2.63348 -1.24852,4.65819 1.06035,4.65819 2.24619,0 4.08399,-1.67695 4.08399,-3.72655 z m -89.77542,-23.35088 c 2.58848,0.84652 10.56151,-2.77648 17.71779,-8.05103 23.98951,-17.68162 48.38775,-10.34284 43.09096,12.96136 -2.28292,10.04407 -1.65647,11.49277 4.47939,10.35869 5.67472,-1.04883 7.59036,-5.88225 9.36758,-23.63581 1.22876,-12.27457 4.63383,-26.01421 7.56682,-30.53263 8.55859,-13.18489 1.24222,-14.20901 -11.7586,-1.64594 -15.12479,14.61554 -36.77673,21.15461 -56.4804,17.05756 l -14.8335,-3.08441 17.35379,-2.10411 17.35382,-2.10417 -15.1753,-2.62438 c -11.91945,-2.06135 -17.96151,-0.96042 -28.16174,5.13143 -13.78992,8.23568 -14.92247,14.09989 -1.36944,7.09073 7.61967,-3.9406 7.7896,-3.63342 3.44103,6.21955 -2.51599,5.70069 -6.84202,13.01235 -9.61343,16.24815 -2.77141,3.2358 -5.03892,9.01167 -5.03892,12.83529 0,5.49503 1.81851,4.58258 8.67689,-4.35369 4.77229,-6.21817 10.79477,-10.61312 13.38326,-9.76659 z m 179.62832,11.18834 c -15.52683,-23.7108 -23.37181,-32.47073 -29.11462,-32.50998 -8.85208,-0.0603 -8.56964,1.88632 3.05485,21.05414 7.43085,12.25287 12.14397,16.16529 19.47362,16.16529 6.84812,0 8.77011,-1.37434 6.58615,-4.70945 z m 32.83794,-0.0492 c 3.00532,-3.49927 1.00852,-9.16971 -7.54571,-21.42769 -6.39789,-9.16802 -13.14129,-19.18456 -14.98534,-22.25896 -2.82193,-4.70466 -4.88325,-4.11457 -13.01739,3.72655 l -9.66456,9.31637 13.35995,17.70114 c 13.4227,17.78427 24.00269,22.08319 31.85305,12.94259 z m -76.3572,-20.43292 c -7.45376,-12.81551 -30.90803,-30.72805 -30.90803,-23.605 0,4.599 30.96853,37.61688 35.28207,37.61688 2.07648,0 0.10803,-6.30532 -4.37404,-14.0118 z m 3.82724,-42.81808 c -4.63959,-10.05497 -10.20311,-16.27266 -15.23702,-17.02866 -9.42289,-1.41516 -9.43638,-1.33516 -2.48455,14.71029 6.7008,15.46597 9.38985,18.15623 18.14805,18.15623 6.53757,0 6.51623,-0.7917 -0.42648,-15.83786 z m -30.4912,-9.51366 c -8.24825,-15.62361 -28.05687,-28.25396 -24.66719,-15.72829 2.08788,7.7153 23.36142,29.90015 28.67187,29.90015 1.91245,0 0.11035,-6.37734 -4.00468,-14.17186 z m 117.73493,-1.66599 c -1.27893,-4.61162 -2.34905,-9.64246 -2.378,-11.17968 -0.0308,-1.53719 -6.25374,-2.7949 -13.83278,-2.7949 -10.97174,0 -13.51913,1.31003 -12.49918,6.42787 1.30763,6.56119 16.26412,15.77746 25.76499,15.87653 3.59043,0.0372 4.52912,-2.61763 2.94497,-8.32982 z m 35.35177,1.47728 c 3.99608,-2.44955 3.80203,-4.03002 -0.96409,-7.85238 -3.28191,-2.63202 -5.96712,-7.85785 -5.96712,-11.61294 0,-5.94906 1.24448,-5.62483 9.67331,2.5202 11.57829,11.18845 14.22837,10.02076 24.70062,-10.88363 10.32701,-20.61448 10.12894,-26.94158 -1.18553,-37.87514 -9.66565,-9.3402 -9.50297,-14.09262 0.35709,-10.43631 13.37935,4.96126 17.17155,-20.73154 4.82138,-32.66586 l -7.90972,-7.64343 -10.99129,11.36998 c -12.65257,13.08859 -22.0674,15.57719 -15.74524,4.16189 6.09691,-11.00866 4.97443,-33.65361 -1.79256,-36.16289 -8.70992,-3.2298 -6.95364,-9.66153 1.89701,-6.94705 10.91754,3.34842 18.51836,-12.89245 12.2528,-26.18086 -6.65605,-14.11651 -14.55221,-15.06721 -25.26316,-3.04169 -10.41089,11.68862 -17.10056,10.20238 -10.19562,-2.2652 4.90198,-8.851 2.5085,-19.67679 -6.21391,-28.10547 -5.17216,-4.99817 -4.9621,-5.61189 1.92108,-5.61189 9.55392,0 13.52507,-10.81051 8.58422,-23.36841 -5.57644,-14.17325 -11.35157,-15.58243 -20.05277,-4.89315 -11.08523,13.61806 -13.58128,12.10367 -13.30503,-8.07235 0.204,-14.90229 -1.12962,-18.28276 -8.43457,-21.37972 -12.0824,-5.12237 -10.82453,-9.36436 2.77683,-9.36436 8.25471,0 13.84278,3.12253 20.00722,11.17968 4.97396,6.50112 12.087,11.17966 16.99705,11.17966 4.64399,0 10.68069,2.60478 13.41491,5.78838 7.26191,8.45548 6.2786,31.60841 -1.57818,37.16 -5.48967,3.87898 -5.81446,6.18686 -2.00703,14.26187 2.4984,5.29869 6.12886,8.68659 8.06773,7.52864 6.89398,-4.1172 25.60711,6.86979 30.284,17.78058 4.19758,9.79267 3.73975,12.39273 -3.95258,22.44686 -7.20294,9.41448 -7.97719,12.90439 -4.49937,20.28043 2.31039,4.90003 7.13823,8.90919 10.72845,8.90919 3.59024,0 9.94647,2.93465 14.12492,6.52146 7.44355,6.38962 7.54292,6.23531 4.91474,-7.63161 -8.03286,-42.38325 -37.38809,-107.40737 -65.95197,-146.08873 -28.55224,-38.66565 -54.38599,-56.28066 -87.87928,-59.92143 -50.63213,-5.5038 -88.43647,45.51479 -65.00726,87.73012 3.90291,7.03241 8.97252,13.39055 11.26575,14.12922 2.29322,0.7387 0.72068,-5.04127 -3.49451,-12.84435 -8.99854,-16.65777 -8.25626,-50.12224 1.31696,-59.37313 5.26429,-5.08705 6.07784,-2.95831 7.81001,20.43619 2.58296,34.88444 16.12554,62.44315 29.99512,61.03922 20.28682,-2.05359 21.25937,-4.43863 6.5782,-16.13262 -16.16451,-12.87556 -23.1824,-31.05685 -21.33377,-55.26965 1.76911,-23.17213 9.27597,-23.40073 12.09886,-0.36845 2.03726,16.6224 17.09152,52.48833 25.5552,60.88387 1.68749,1.67389 8.07179,-1.20776 14.18735,-6.4037 8.38716,-7.12599 9.52978,-9.47611 4.65035,-9.56495 -15.81976,-0.28807 -33.07579,-38.53779 -27.2266,-60.35059 4.60025,-17.15521 12.4852,-18.08532 12.4852,-1.47276 0,15.68193 13.23234,54.36604 19.97369,58.39214 3.50337,2.0923 3.60164,6.01224 0.40314,16.08298 -2.36271,7.43921 -2.6866,13.31636 -0.73387,13.31636 1.92249,0 3.49543,2.2814 3.49543,5.06979 0,2.78838 4.28617,11.17313 9.52478,18.63276 5.23864,7.45965 7.72761,13.56299 5.53107,13.56299 -9.95514,0 -19.01764,-8.79161 -23.29994,-22.60346 -4.49836,-14.50865 -4.90144,-14.79509 -11.64698,-8.27663 -6.00534,5.80309 -6.40089,8.84047 -2.81444,21.611 5.40927,19.26103 18.01686,39.08151 24.85935,39.08151 6.70809,0 17.09614,-14.96669 21.40352,-30.8374 2.82629,-10.41363 3.07964,-9.65816 1.89786,5.65939 -0.93025,12.05721 -4.7059,21.91148 -11.87575,30.9951 l -10.51184,13.31777 11.14968,17.42701 c 6.13233,9.58484 14.00194,17.95782 17.488,18.60656 6.88503,1.28127 14.26879,-9.46476 18.70281,-27.21925 2.48048,-9.9324 2.83604,-9.26631 3.18673,5.97038 0.55409,24.07256 -11.92826,40.44757 -41.34591,54.2398 -2.39121,1.1211 10.42314,22.35071 16.36972,27.11973 3.61553,2.8996 9.98008,3.8349 16.06059,2.36018 l 10.07183,-2.44275 -10.02174,-8.97511 c -5.51194,-4.9363 -10.02174,-12.40909 -10.02174,-16.60616 0,-10.27966 2.06985,-9.68081 15.04593,4.35299 9.56928,10.34928 11.92911,11.30373 17.29947,6.9968 3.42023,-2.74297 6.21858,-7.29731 6.21858,-10.12073 0,-2.82346 1.73539,-5.13355 3.8564,-5.13355 13.5031,0 -5.31562,33.85823 -22.68229,40.80952 -13.7975,5.52268 -14.19514,6.71029 -6.02204,17.98614 6.07903,8.38679 18.77819,10.70687 27.92276,5.1014 z m -12.09671,-74.41568 c -6.81176,-7.27345 -8.51605,-15.56726 -3.19896,-15.56726 4.05789,0 14.18746,17.97454 11.56029,20.51327 -1.07672,1.04044 -4.83933,-1.18525 -8.36133,-4.94601 z M 591.6289,642.77653 c -2.59205,-5.49737 -3.19187,-11.302 -1.35167,-13.08023 1.8402,-1.77824 6.17282,2.60765 9.7632,9.88331 5.02991,10.19258 5.32831,13.08022 1.35171,13.08022 -2.80675,0 -7.20023,-4.44747 -9.76324,-9.8833 z M 416.03433,752.35998 c 1.31808,-1.2737 -3.27429,-9.13476 -10.20527,-17.469 -9.95022,-11.96481 -15.17069,-15.15323 -24.811,-15.15323 -15.19819,0 -18.18281,2.7148 -13.09141,11.90788 2.8231,5.09736 2.68647,8.71715 -0.46767,12.38971 -8.26955,9.6287 -0.0665,13.87292 23.61367,12.2177 12.41085,-0.86748 23.6436,-2.61936 24.96168,-3.89306 z M 253.8642,743.03636 c -3.43613,-13.22972 -3.74857,-13.44607 -15.3506,-10.63219 -17.07519,4.14128 -8.55504,20.45252 10.84357,20.75925 5.90476,0.0936 6.69841,-1.68988 4.50703,-10.12706 z m 30.98351,-0.0648 c 2.25134,-1.50584 4.0487,-6.45277 3.99413,-10.9932 -0.0795,-6.6185 -1.77482,-7.84894 -8.55022,-6.20567 -6.25614,1.51735 -9.11376,0.0335 -11.00271,-5.71925 -4.43113,-13.49114 -10.95055,-8.94008 -8.45774,5.90413 2.8882,17.19861 13.01481,24.37258 24.01654,17.01399 z m 74.96286,-6.77481 c 0,-6.12813 -1.75195,-9.00617 -4.82051,-7.91892 -2.65125,0.93939 -4.38664,3.59456 -3.85639,5.90036 0.53026,2.30581 -1.20512,4.21805 -3.8564,4.24943 -3.21365,0.0379 -2.89231,1.26121 0.96409,3.6695 9.11223,5.69049 11.56921,4.43744 11.56921,-5.90037 z m 208.9065,-5.27929 c -1.49155,-15.11378 -3.10606,-16.62566 -13.59945,-12.73454 -6.48399,2.40438 -4.70637,10.78175 4.48137,21.11927 8.74292,9.83707 10.73552,8.00472 9.11808,-8.38473 z m -240.7218,1.59507 c -5.8328,-3.05782 -10.6051,-8.02152 -10.6051,-11.03049 0,-3.00894 -2.01559,-5.05156 -4.4791,-4.53915 -2.4635,0.51238 -5.6954,-3.26075 -7.18197,-8.38475 -2.32275,-8.00617 -3.10672,-8.39924 -5.57447,-2.79493 -1.5794,3.58681 -1.87274,9.03689 -0.65188,12.1113 1.22088,3.07441 0.53885,5.58984 -1.51559,5.58984 -5.46127,0 -4.56847,10.23371 1.08513,12.43818 2.65128,1.03379 12.62971,1.94486 22.17428,2.02466 l 17.35381,0.14493 -10.60511,-5.5596 z M 222.86285,729.9858 c -1.81734,-4.88852 -41.43683,-149.99302 -45.78761,-167.69494 -1.38533,-5.6364 -4.03373,-10.24802 -5.88533,-10.24802 -1.85161,0 6.94424,38.98908 19.54633,86.64239 26.86233,101.57686 25.10582,95.95877 30.0019,95.95877 2.12103,0 3.07713,-2.09619 2.12471,-4.6582 z m 125.37851,-14.20327 c 0,-2.61429 -9.70466,-1.48631 -23.13837,2.68946 -4.77442,1.48409 -4.48473,2.72259 1.65877,7.09181 6.50124,4.62368 8.33171,4.51688 14.46151,-0.8437 3.85997,-3.37561 7.01809,-7.39749 7.01809,-8.93757 z m 192.72497,-27.03918 c -4.46667,-7.31551 -8.27205,-18.42701 -8.45638,-24.69225 -0.25378,-8.62608 -2.12804,-11.3913 -7.72098,-11.3913 -7.89019,0 -7.51257,3.92784 2.70122,28.09697 4.9458,11.70335 17.10895,25.62482 19.97152,22.85864 0.89421,-0.86408 -2.02872,-7.55653 -6.49538,-14.87206 z m 38.95149,-5.29377 c -6.45985,-4.88537 -13.64842,-15.19177 -16.09107,-23.06999 -3.47148,-11.19677 -5.9636,-13.84839 -11.662,-12.40842 -3.98587,1.00725 -7.24703,4.20505 -7.24703,7.10625 0,8.63513 10.07307,28.664 18.88005,37.54033 7.08073,7.13646 9.57178,7.68599 18.00679,3.97209 l 9.78928,-4.31009 z m -74.6667,-3.42595 c -3.04028,-5.82688 -6.67208,-15.20593 -8.07065,-20.84235 -2.41179,-9.71967 -10.10874,-14.59408 -10.10874,-6.40178 0,5.5115 10.94833,30.06941 16.05759,36.01847 6.89138,8.024 8.1566,2.79185 2.1218,-8.77434 z m -119.96634,-90.0805 c -11.52069,-49.86618 -21.89875,-91.58573 -23.06234,-92.71014 -1.16358,-1.12442 -43.39755,6.31282 -93.85321,16.5272 -50.45568,10.21435 -93.38752,17.6687 -95.40408,16.56515 -2.01654,-1.10349 -1.14884,-2.67071 1.92822,-3.48263 13.80197,-3.64193 15.56779,-4.80469 13.11659,-8.63727 -1.87793,-2.93628 -3.78134,-2.94364 -6.80029,-0.0261 -7.52485,7.27148 -11.74774,4.25378 -4.65119,-3.32376 3.79875,-4.05628 15.78153,-10.56675 26.62839,-14.46775 22.4513,-8.07474 75.63932,-14.36965 75.63932,-8.95234 0,1.92532 -8.12438,3.79754 -18.05417,4.16047 -23.42954,0.85637 -26.77522,4.15292 -4.76286,4.69294 16.32499,0.40044 15.99129,0.60409 -8.03417,4.90336 -27.2276,4.8722 -55.43554,13.15644 -52.95612,15.55239 1.38441,1.3378 128.80782,-22.6893 140.66578,-26.52407 3.74195,-1.21014 3.80291,-3.65978 0.2772,-11.13738 -3.11372,-6.60377 -6.40572,-8.82089 -10.58168,-7.12663 -3.33398,1.35266 -21.6802,4.04106 -40.76939,5.97423 -50.57404,5.12163 -82.45245,12.89574 -102.77067,25.06245 l -17.92992,10.73658 9.19791,-13.09752 c 12.63132,-17.98657 17.04177,-35.57249 16.615,-66.24941 -0.40222,-28.91308 -3.50363,-43.49358 -9.67424,-45.48121 -2.73711,-0.88164 -3.50801,8.27991 -2.33887,27.79618 0.95919,16.01121 -0.29374,38.59637 -2.78428,50.18923 -4.25857,19.8228 -16.06367,40.1636 -23.30954,40.1636 -1.78501,0 -2.42259,-29.76585 -1.41686,-66.14634 1.21825,-44.06798 0.56342,-64.25143 -1.96186,-60.46927 -2.08473,3.12239 -4.35811,34.57507 -5.05193,69.89487 -1.17422,59.77483 -1.78085,64.3787 -8.76823,66.54274 -6.87101,2.12802 -6.45764,3.23067 4.88135,13.02091 12.48501,10.77978 23.83557,14.013 23.83557,6.78965 0,-2.14855 -5.63998,-6.27531 -12.5333,-9.17054 l -12.53328,-5.26409 12.65432,-0.14569 c 7.79942,-0.0899 13.50595,1.9987 14.87409,5.44398 1.22086,3.0744 5.12429,5.58983 8.67427,5.58983 3.54997,0 46.27948,-8.2793 94.95444,-18.39841 48.67497,-10.11914 88.88432,-18.02698 89.35412,-17.57302 0.46978,0.45402 9.70309,39.33763 20.51846,86.40802 23.7474,103.35304 24.37608,105.74511 25.92112,98.62557 0.66717,-3.07441 -8.21296,-46.38946 -19.73367,-96.25564 z m 450.72995,49.2321 c -11.78276,-16.77825 -17.24332,-35.26277 -17.27115,-58.46472 -0.0231,-18.51095 6.67953,-49.98296 11.22119,-52.69532 1.41968,-0.84787 2.60781,18.88479 2.64024,43.85035 0.0452,34.61195 1.62999,48.86746 6.67393,60.02634 4.66798,10.32709 7.82051,13.46934 10.71099,10.67619 2.8905,-2.79315 2.08337,-7.64882 -2.74217,-16.49765 -9.53299,-17.48088 -9.01753,-46.38177 1.16386,-65.25751 l 8.20391,-15.20959 -11.31197,-19.13957 c -6.22157,-10.52678 -12.64772,-19.13958 -14.28037,-19.13958 -1.63261,0 -8.53901,12.51849 -15.34758,27.81886 -20.43078,45.91279 -16.33107,81.21646 12.24718,105.46365 18.21402,15.45368 19.75792,15.18057 8.09194,-1.43145 z m -320.70524,-7.11198 c -13.76723,-10.48652 -22.45369,-31.09501 -18.88997,-44.81602 1.734,-6.67616 0.79933,-9.11848 -3.48972,-9.11848 -10.01174,0 -11.46965,1.56843 -10.39203,11.17967 2.95944,26.39445 20.12091,52.1886 34.68365,52.13043 l 10.34251,-0.0413 -12.25444,-9.33428 z m 40.237,0.3882 c 1.0277,-0.99308 -4.41414,-7.5314 -12.09293,-14.52959 -11.66723,-10.6331 -13.96143,-15.25421 -13.96143,-28.12182 0,-12.75742 -1.28356,-15.39784 -7.48521,-15.39784 -4.11684,0 -8.3473,1.34798 -9.40104,2.99553 -3.35593,5.24713 5.32909,34.99909 13.42316,45.98343 4.29395,5.8273 6.79629,12.17567 5.56074,14.10751 -2.21031,3.45597 20.00048,-1.21419 23.95671,-5.03722 z m -84.7219,-12.37611 c -8.96759,-9.91974 -15.27085,-32.4919 -12.28433,-43.99049 1.88418,-7.25447 1.37094,-9.47662 -1.75728,-7.60839 -5.68019,3.39237 -5.72407,30.06029 -0.0669,40.64136 5.95694,11.14168 15.75553,21.6272 18.09643,19.36511 1.06052,-1.02481 -0.73406,-4.80822 -3.98791,-8.40759 z M 199.58856,491.81984 c 5.40234,-2.37859 9.74892,-5.31323 9.65906,-6.52146 -0.0898,-1.20821 -2.48141,-11.41998 -5.31456,-22.69279 -5.33559,-21.22993 -7.98744,-19.90383 -11.17835,5.58983 -1.02616,8.19843 -3.09008,17.84088 -4.58651,21.42768 -3.20466,7.68128 -1.69558,7.97155 11.42036,2.19674 z m 486.49353,-32.00991 c 0.57584,-11.78482 2.14062,-31.48865 3.47725,-43.78627 1.99552,-18.35983 1.53084,-21.50255 -2.59802,-17.56949 -3.34478,3.18619 -5.50844,18.78209 -6.46245,46.58193 -0.78878,22.98564 -0.091,40.53404 1.55103,38.99643 1.64186,-1.53762 3.45636,-12.43779 4.03219,-24.2226 z m 2.21789,-145.33488 c -0.84284,-44.01473 -3.01435,-75.09739 -5.40215,-77.32599 -2.74993,-2.56653 -3.24388,11.35376 -1.58691,44.71866 1.32324,26.64487 2.41291,61.44155 2.42152,77.32599 0.007,15.88443 1.35695,28.8808 2.99625,28.8808 1.63936,0 2.34643,-33.11976 1.57129,-73.59946 z m -299.78509,61.5906 c 15.67601,-21.62706 -2.87087,-51.34257 -32.04541,-51.34257 -11.64926,0 -16.99602,2.05905 -21.50683,8.2823 -8.36533,11.54104 -7.48657,29.88247 1.98941,41.52363 6.68014,8.20647 11.07735,9.81894 26.77613,9.81894 15.03858,0 19.9803,-1.65123 24.7867,-8.2823 z m -36.60833,-8.70986 c -7.61365,-8.86496 -0.22818,-25.61208 11.83138,-26.82858 17.24981,-1.74004 26.51464,11.28817 18.57454,26.11962 -4.38295,8.18702 -23.59865,8.63508 -30.40592,0.70896 z m 17.75267,-13.14497 c 3.97411,-6.21372 -4.96397,-13.33924 -10.28393,-8.19843 -4.45,4.30016 -1.66488,12.24969 4.29167,12.24969 1.87067,0 4.56719,-1.82307 5.99226,-4.05126 z m 90.92951,-89.98788 c 16.71648,-13.00668 41.18567,-19.25546 55.21605,-14.10072 8.35501,3.06963 9.83094,2.57032 9.83094,-3.32588 0,-14.16936 -55.67981,-13.0396 -85.23513,1.72945 -11.23477,5.61412 -13.1107,5.50585 -30.60441,-1.76637 -19.33272,-8.03669 -57.69841,-10.71006 -57.69841,-4.02052 0,2.04959 3.53989,3.72655 7.86643,3.72655 18.94604,0 52.3973,24.0144 64.21638,46.10045 l 5.80789,10.85307 8.29554,-14.14793 c 4.56253,-7.78134 14.59967,-19.053 22.30472,-25.0481 z M 237.43996,223.68322 c 43.21179,-20.86851 49.93786,-25.06313 47.15805,-29.40949 -2.08248,-3.25609 -90.3916,41.29554 -90.52644,45.67024 -0.13924,4.51677 2.02636,3.70479 43.36839,-16.26075 z m 432.41691,10.09132 c -2.21804,-5.58552 -59.30693,-29.6143 -62.66034,-26.37382 -3.6548,3.53172 5.48526,9.27356 32.45532,20.38868 30.72711,12.6635 33.03895,13.12157 30.20502,5.98514 z M 373.30263,222.05793 c 27.46753,-7.98817 97.77242,-7.15267 130.24225,1.54778 30.46649,8.16365 35.31123,3.62459 5.70116,-5.34138 -30.04559,-9.09786 -94.97452,-11.03502 -129.9017,-3.87567 -30.34942,6.22099 -37.60741,10.01537 -32.98439,17.24372 2.13762,3.34229 3.53116,3.37706 5.60163,0.13986 1.51585,-2.37012 11.11933,-6.74154 21.34105,-9.71423 z m 176.69481,-39.00737 c -4.45128,-3.95532 -136.86762,-57.07703 -142.27578,-57.07703 -6.90088,0 -90.33149,46.20603 -90.33149,50.02793 0,4.85205 6.64745,4.17814 16.52539,-1.67536 4.69766,-2.78375 23.31111,-12.63741 41.36321,-21.897 l 32.82198,-16.83561 67.44437,26.97466 c 37.09443,14.83606 69.73029,26.14398 72.52413,25.12872 2.79385,-1.01525 3.66154,-3.10609 1.92819,-4.64631 z M 104.32413,921.98129 c -3.71178,-0.85583 -6.72514,-2.6908 -6.69637,-4.0777 0.0584,-2.81507 82.03573,-34.37308 84.10235,-32.37603 0.72106,0.69678 -0.55517,4.63637 -2.83602,8.75474 -7.59232,13.70873 -56.48329,31.86926 -74.56996,27.69899 z M 92.09199,899.08327 c -1.14524,-1.79063 8.01959,-5.17619 20.36627,-7.52347 12.3467,-2.34729 32.27045,-9.98311 44.27504,-16.96848 24.82778,-14.44712 28.75327,-11.85132 7.581,5.01301 -21.82883,17.38737 -65.94938,29.28701 -72.22231,19.47894 z M 421.79286,404.34143 c -5.3917,-6.62364 -7.8552,-14.80937 -7.57018,-25.15423 l 0.42253,-15.3353 3.20213,15.66443 c 1.7612,8.61544 5.41497,19.51561 8.11954,24.2226 4.62133,8.04295 5.06919,7.42055 7.43917,-10.33875 1.38698,-10.39333 4.52282,-22.51 6.9685,-26.92593 3.91873,-7.07569 3.31795,-8.30274 -5.06008,-10.33468 -5.2287,-1.26815 -11.56591,-1.07594 -14.08263,0.42711 -2.88282,1.7217 -3.92403,0.8174 -2.81409,-2.44408 4.59995,-13.51655 37.8028,-4.01895 37.8028,10.81342 0,10.23246 -17.31349,49.11449 -21.8944,49.16967 -2.49733,0.0303 -8.13731,-4.36384 -12.53329,-9.76426 z m -23.41831,0.50257 c 2.64044,-3.07442 5.66849,-5.58984 6.72899,-5.58984 1.06053,0 -0.23215,2.51542 -2.87257,5.58984 -2.64044,3.07441 -5.6685,5.58984 -6.72899,5.58984 -1.06053,0 0.23215,-2.51543 2.87257,-5.58984 z m 101.03766,-36.14758 c -11.7123,-11.31796 2.58619,-35.2651 17.98934,-30.12854 7.69815,2.56715 15.94698,12.02122 15.94698,18.27699 0,13.05553 -24.01237,21.44135 -33.93632,11.85155 z m 18.51072,-16.02418 c 0,-3.07441 -2.60307,-5.58984 -5.78461,-5.58984 -3.18152,0 -5.78458,2.51543 -5.78458,5.58984 0,3.07441 2.60306,5.58984 5.78458,5.58984 3.18154,0 5.78461,-2.51543 5.78461,-5.58984 z m 46.4445,-97.08569 c 2.73269,-3.18181 6.01155,-11.9858 7.28633,-19.56442 2.7363,-16.26728 9.37217,-18.22659 11.14406,-3.29039 1.45768,12.28757 -8.38057,28.63993 -17.23101,28.63993 -5.13785,0 -5.33815,-0.96611 -1.19938,-5.78512 z"
       id="path6220"
       inkscape:connector-curvature="0" />
  </g>
</svg>
