<?xml version="1.0" encoding="UTF-8" standalone="no"?>
<svg
   id="svg3961"
   version="1.1"
   viewBox="0 0 83.260714 85.522915"
   height="323.23621"
   width="314.68616"
   xmlns="http://www.w3.org/2000/svg"
   xmlns:svg="http://www.w3.org/2000/svg"
   xmlns:rdf="http://www.w3.org/1999/02/22-rdf-syntax-ns#"
   xmlns:cc="http://creativecommons.org/ns#"
   xmlns:dc="http://purl.org/dc/elements/1.1/">
  <defs
     id="defs3955" />
  <metadata
     id="metadata3958">
    <rdf:RDF>
      <cc:Work
         rdf:about="">
        <dc:format>image/svg+xml</dc:format>
        <dc:type
           rdf:resource="http://purl.org/dc/dcmitype/StillImage" />
      </cc:Work>
    </rdf:RDF>
  </metadata>
  <g
     id="layer4"
     style="display:inline;fill:#ffffff"
     transform="translate(-37.924818,-37.219435)">
    <rect
       style="fill:#ffffff;stroke-width:12.1225"
       id="rect1158"
       width="18.20738"
       height="4.5518451"
       x="116.92502"
       y="-2.2654183"
       transform="matrix(0.70267636,0.71150962,-0.70267636,0.71150962,0,0)" />
    <rect
       style="fill:#ffffff;stroke-width:8.68169"
       id="rect1160"
       width="40.511227"
       height="13.474625"
       x="127.84944"
       y="-7.0655861"
       ry="4.4561749"
       rx="4.4658046"
       transform="matrix(0.70113959,0.71302403,-0.70381647,0.71038186,0,0)" />
    <path
       id="path1104"
       style="fill:#ffffff;stroke-width:15.5179"
       d="M 66.078139,37.219435 A 28.153799,28.507717 0 0 0 37.924818,65.726739 28.153799,28.507717 0 0 0 66.078139,94.234561 28.153799,28.507717 0 0 0 94.231977,65.726739 28.153799,28.507717 0 0 0 66.078139,37.219435 Z m 0,10.739396 A 17.547382,17.767967 0 0 1 83.625906,65.726739 17.547382,17.767967 0 0 1 66.078139,83.495164 17.547382,17.767967 0 0 1 48.530889,65.726739 17.547382,17.767967 0 0 1 66.078139,47.958831 Z" />
  </g>
</svg>
